<?xml version="1.0" standalone="no"?>
<!DOCTYPE svg PUBLIC "-//W3C//DTD SVG 20010904//EN"
 "http://www.w3.org/TR/2001/REC-SVG-20010904/DTD/svg10.dtd">
<svg version="1.0" xmlns="http://www.w3.org/2000/svg"
 width="545.000000pt" height="545.000000pt" viewBox="0 0 545.000000 545.000000"
 preserveAspectRatio="xMidYMid meet">

<g transform="translate(0.000000,545.000000) scale(0.100000,-0.100000)"
fill="#000000" stroke="none">
<path d="M0 2726 l0 -2726 607 0 c333 0 604 2 601 5 -2 3 -55 7 -117 10 -62 3
-117 8 -122 11 -13 8 -11 68 3 87 12 15 24 15 108 7 52 -5 174 -11 270 -14 96
-2 186 -8 200 -13 14 -6 86 -11 160 -12 74 -1 153 -3 175 -6 22 -2 142 -9 267
-15 125 -5 233 -12 240 -15 28 -10 596 -23 653 -14 51 7 62 6 73 -9 12 -15 43
-17 330 -18 174 -1 282 2 240 5 -111 9 -113 19 -8 35 19 3 67 13 105 21 143
32 182 37 268 32 99 -5 127 -20 127 -69 l0 -28 635 0 635 0 0 2369 0 2370 -66
0 c-39 0 -72 5 -81 13 -16 13 -61 16 -348 21 -66 1 -125 5 -130 9 -6 3 -49 9
-95 13 -47 3 -121 12 -165 20 -44 8 -159 17 -255 21 -222 10 -217 9 -270 17
-25 4 -92 9 -150 12 -58 3 -154 10 -215 15 -157 14 -423 29 -620 36 -93 3
-173 8 -177 10 -7 5 -488 18 -566 16 -63 -2 -142 42 -157 87 -7 23 -6 23 41
17 27 -4 90 -9 139 -11 163 -10 399 -24 455 -29 98 -8 262 -16 430 -21 91 -3
221 -10 290 -15 69 -5 256 -15 415 -21 160 -6 313 -12 340 -14 117 -7 341 -17
485 -21 85 -2 218 -9 295 -14 77 -5 200 -12 273 -16 132 -6 132 -6 132 16 0
17 -4 21 -20 17 -11 -3 -22 -2 -25 3 -5 9 -105 17 -365 30 -96 5 -254 16 -350
24 -96 9 -215 16 -265 16 -49 0 -162 7 -250 15 -247 23 -388 34 -530 40 -71 3
-168 8 -215 12 -47 4 -107 6 -134 5 -26 -2 -62 2 -80 7 -17 5 -143 12 -279 16
-137 3 -254 8 -260 10 -11 3 -327 16 -497 20 -118 3 -184 21 -224 61 -32 31
-8 36 143 29 205 -8 461 -25 491 -30 14 -3 129 -10 255 -15 127 -6 302 -14
390 -20 356 -20 605 -31 790 -35 66 -1 139 -6 161 -9 22 -4 168 -12 324 -17
323 -12 344 -13 530 -28 281 -21 414 -16 408 17 -4 18 -54 30 -129 31 -25 1
-59 5 -75 10 -16 6 -101 12 -189 16 -183 7 -271 11 -370 20 -38 3 -151 10
-250 15 -99 6 -216 12 -260 15 -44 4 -114 6 -156 5 -42 -1 -94 3 -115 8 -22 6
-118 13 -214 18 -96 4 -188 8 -205 9 -41 4 -489 26 -1005 50 -63 3 -128 8
-145 10 -16 3 -133 7 -259 10 -125 3 -245 9 -266 15 -39 11 -140 84 -140 102
0 10 24 8 90 -7 14 -3 66 -8 115 -10 329 -18 464 -27 565 -35 174 -14 493 -30
700 -35 102 -2 226 -9 275 -14 74 -9 345 -24 640 -36 33 -1 94 -5 135 -8 41
-4 136 -9 210 -12 277 -10 369 -16 690 -41 202 -16 225 -16 303 -8 46 5 57 9
57 24 0 23 -48 34 -215 49 -132 12 -485 33 -608 37 -43 1 -88 5 -101 8 -24 6
-190 15 -396 21 -161 5 -502 25 -518 30 -7 3 -316 16 -685 31 -370 14 -721 30
-782 35 -60 6 -568 13 -1127 16 l-1018 5 0 -2726z m2413 2148 c45 -2 111 -6
147 -8 36 -3 209 -12 385 -21 176 -8 435 -22 575 -30 140 -8 320 -17 400 -20
80 -3 206 -8 280 -11 74 -4 182 -6 240 -5 l105 2 -35 -19 c-32 -17 -71 -27
-212 -52 -26 -5 -56 -13 -66 -19 -14 -7 -45 -8 -99 -1 -94 12 -566 46 -828 60
-104 6 -273 15 -375 21 -102 6 -264 11 -360 11 -101 0 -183 4 -195 10 -28 15
-64 60 -65 81 0 10 5 15 11 12 5 -4 47 -9 92 -11z m106 -156 c31 -4 124 -12
206 -17 83 -6 193 -13 245 -17 52 -4 151 -8 220 -10 69 -2 242 -10 385 -18
265 -15 429 -15 499 -1 33 7 38 6 35 -9 -2 -10 -24 -28 -49 -40 -153 -79 -175
-87 -197 -65 -5 5 -52 12 -104 15 -52 2 -125 8 -164 13 -38 5 -134 9 -211 9
-78 0 -146 2 -152 6 -7 4 -64 9 -129 12 -65 3 -152 9 -193 13 -41 4 -144 7
-228 6 l-154 -3 -29 29 c-16 16 -41 36 -54 45 -24 16 -33 43 -18 57 3 4 13 1
21 -5 8 -7 39 -16 71 -20z m106 -167 c39 0 142 -8 230 -16 88 -8 234 -17 325
-20 91 -3 190 -8 220 -10 30 -2 142 -5 247 -7 106 -2 193 -6 193 -9 0 -8 -51
-54 -84 -75 -31 -20 -134 -22 -191 -4 -16 5 -97 12 -180 14 -82 3 -177 7 -210
10 -99 8 -279 16 -470 21 -178 5 -180 5 -202 30 -39 45 -24 90 26 75 14 -4 58
-8 96 -9z m3 -158 c20 -7 9 -7 331 -22 140 -7 265 -10 277 -7 13 4 45 1 71 -5
41 -10 115 -14 321 -18 l43 -1 -15 -28 c-8 -15 -22 -35 -32 -44 -22 -19 -74
-34 -74 -21 0 5 -26 9 -57 10 -32 1 -128 7 -213 13 -206 14 -507 31 -599 33
-63 2 -76 6 -92 26 -18 22 -25 61 -13 74 6 6 16 4 52 -10z m197 -174 c55 -6
179 -12 275 -14 96 -1 200 -6 230 -10 30 -3 84 -7 119 -8 35 -1 66 -7 68 -13
2 -6 -16 -26 -39 -44 -42 -34 -43 -34 -138 -33 -52 0 -107 6 -123 12 -32 13
-185 22 -387 25 l-144 1 -23 34 c-45 66 -32 70 162 50z m-70 -149 c15 -6 118
-12 229 -15 412 -10 435 -15 363 -81 -42 -39 -80 -51 -110 -36 -20 10 -343 34
-465 35 -58 0 -72 12 -72 65 0 44 10 49 55 32z m238 -172 c179 -9 222 -9 243
3 22 11 27 11 34 -1 12 -18 4 -46 -22 -83 -18 -25 -25 -28 -57 -23 -94 14
-295 27 -376 24 l-90 -3 -3 54 -3 54 28 -7 c15 -4 126 -12 246 -18z m67 -152
l135 -5 -2 -32 c-1 -19 -11 -42 -26 -57 -22 -22 -29 -24 -54 -14 -15 6 -107
13 -203 17 -117 4 -177 10 -182 18 -9 15 -10 71 -1 80 3 4 49 5 102 2 53 -2
157 -7 231 -9z m-225 -152 c33 -2 111 -5 174 -7 76 -3 116 -9 121 -17 11 -17
-8 -69 -29 -78 -17 -9 -276 9 -286 20 -4 3 -23 0 -43 -9 -33 -14 -37 -14 -49
3 -14 19 -17 62 -7 89 5 12 13 15 33 9 14 -4 53 -9 86 -10z m-76 -144 c10 -5
84 -10 165 -11 l146 -1 0 -31 c-1 -18 -9 -42 -19 -54 -18 -21 -25 -23 -103
-18 -45 2 -100 9 -120 14 -22 5 -38 5 -38 0 0 -15 -39 -10 -60 8 -22 19 -27
72 -8 91 14 14 15 14 37 2z m215 -163 l49 6 -5 -47 c-3 -26 -11 -53 -16 -58
-13 -13 -133 -11 -170 3 -15 6 -50 8 -79 4 l-53 -6 0 40 c0 60 18 68 132 59
51 -4 115 -4 142 -1z m-134 -153 c47 -3 93 -7 103 -10 21 -7 23 -51 3 -80 -14
-19 -20 -20 -73 -12 -32 4 -102 9 -156 10 -54 1 -100 5 -103 9 -7 12 13 56 37
80 17 17 28 20 62 15 23 -3 80 -9 127 -12z m-50 -150 c140 -6 145 -7 167 -33
21 -23 31 -70 18 -82 -2 -3 -35 -2 -72 3 -37 4 -99 8 -138 8 -38 0 -94 5 -122
12 -47 10 -55 9 -73 -7 -28 -25 -42 -9 -38 46 3 50 32 72 83 64 17 -2 95 -7
175 -11z m-163 -148 c37 -8 100 -15 138 -15 128 -2 239 -11 248 -20 14 -14
-44 -70 -88 -85 -24 -9 -48 -11 -61 -6 -11 5 -74 11 -139 15 -65 3 -122 8
-125 10 -19 12 -62 87 -56 100 7 18 0 18 83 1z m52 -158 c8 -9 40 -13 92 -12
67 1 79 -2 79 -16 0 -9 -18 -27 -40 -39 -23 -13 -53 -34 -67 -47 -14 -13 -29
-21 -34 -19 -20 13 -69 98 -69 121 0 26 18 32 39 12z m119 -1839 c2 -23 12
-45 28 -59 27 -26 31 -57 11 -84 -15 -21 -39 -23 -147 -12 -41 4 -140 9 -220
11 l-145 4 -3 49 c-3 47 -2 50 29 63 18 7 45 12 61 11 19 -2 28 2 28 13 0 22
8 19 37 -15 50 -60 107 -73 199 -46 27 8 63 18 79 22 17 3 24 9 18 11 -7 3
-13 20 -13 40 0 27 4 34 18 31 12 -2 18 -14 20 -39z m-243 -194 c61 -2 140 -5
176 -5 59 0 67 -2 78 -24 11 -19 11 -31 1 -61 l-12 -37 -82 7 c-44 3 -100 11
-123 16 -23 5 -103 9 -177 10 l-136 1 0 36 c0 58 21 73 99 67 36 -3 116 -7
176 -10z m-1510 -105 c6 -4 35 -15 65 -25 63 -20 110 -45 110 -58 0 -5 -7 -7
-15 -3 -8 3 -56 6 -107 7 -51 1 -99 6 -105 11 -7 6 -13 25 -13 43 0 42 27 52
65 25z m1254 -24 c11 -13 156 -25 389 -31 54 -2 99 -8 107 -15 16 -13 21 -85
7 -94 -4 -2 -69 2 -142 10 -200 21 -364 25 -386 10 -9 -7 -15 -20 -11 -28 4
-12 29 -17 99 -22 210 -16 401 -21 416 -12 4 3 21 -2 38 -10 33 -16 64 -61 64
-93 0 -22 3 -22 -77 -5 -16 3 -50 7 -78 10 -27 2 -90 8 -139 13 -104 10 -305
17 -423 13 -103 -3 -109 12 -25 65 69 44 84 64 86 113 4 66 47 110 75 76z
m-1270 -85 c10 -6 58 -10 107 -10 49 1 106 1 127 1 83 0 336 -71 369 -104 42
-42 7 -48 -118 -23 -80 17 -204 26 -404 28 l-125 2 -3 37 c-3 34 11 78 24 78
3 0 13 -4 23 -9z m279 -167 c105 -4 152 -2 152 5 0 16 56 14 72 -3 15 -14 98
-19 98 -5 0 5 11 9 25 9 14 0 25 -3 25 -8 0 -11 72 -34 105 -33 93 2 149 2
230 -3 198 -12 251 -17 285 -25 37 -10 292 -21 501 -22 l127 -1 48 -49 c76
-77 69 -99 -25 -74 -32 8 -85 15 -118 15 -32 0 -74 5 -93 10 -46 13 -377 39
-571 44 -359 10 -564 19 -569 27 -3 4 -82 10 -175 13 -182 6 -326 16 -337 22
-4 3 -26 -2 -49 -10 -24 -8 -46 -13 -50 -11 -11 7 -21 74 -13 97 6 20 11 20
93 14 47 -4 155 -9 239 -12z m2027 -225 c13 -13 -107 -12 -142 2 -26 10 -27
12 -10 23 14 11 28 11 80 -1 34 -8 66 -19 72 -24z m182 -25 c-3 -3 -12 -4 -19
-1 -8 3 -5 6 6 6 11 1 17 -2 13 -5z m56 -1 c-7 -2 -21 -2 -30 0 -10 3 -4 5 12
5 17 0 24 -2 18 -5z"/>
<path d="M3710 5440 c57 -5 181 -11 275 -14 326 -10 470 -17 515 -26 25 -5
111 -12 190 -15 80 -3 172 -8 205 -10 33 -3 103 -8 155 -11 52 -4 97 -9 100
-13 7 -9 182 -13 248 -5 46 5 52 8 52 29 0 18 -7 24 -32 29 -48 8 -211 17
-378 20 -80 1 -152 6 -160 11 -9 5 -289 10 -645 11 -413 2 -594 -1 -525 -6z"/>
<path d="M3798 3 c12 -2 30 -2 40 0 9 3 -1 5 -23 4 -22 0 -30 -2 -17 -4z"/>
</g>
</svg>
